<svg preserveAspectRatio="none" width="100%" height="100%" overflow="visible" style="display: block;" viewBox="0 0 32 32" fill="none" xmlns="http://www.w3.org/2000/svg">
<g id="Frame">
<path id="Vector" d="M15.9997 19.9997C18.2089 19.9997 19.9997 18.2089 19.9997 15.9997C19.9997 13.7905 18.2089 11.9997 15.9997 11.9997C13.7905 11.9997 11.9997 13.7905 11.9997 15.9997C11.9997 18.2089 13.7905 19.9997 15.9997 19.9997Z" stroke="var(--stroke-0, #158EF2)" stroke-width="2" stroke-linecap="round" stroke-linejoin="round"/>
<path id="Vector_2" d="M26.1632 13.8605L24.6996 10.3264L26.6666 7.99997L24 5.3333L21.6862 7.31057L18.077 5.82629L17.247 2.66663H14.6413L13.7988 5.86814L10.2725 7.35458L7.99997 5.3333L5.3333 7.99997L7.27113 10.3851L5.82997 13.9284L2.66663 14.6666V17.3333L5.86811 18.2073L7.3543 21.7329L5.3333 24L7.99997 26.6666L10.3882 24.7204L13.8626 26.1497L14.6666 29.3333H17.3333L18.1393 26.1509L21.6734 24.6873C22.2625 25.1084 24 26.6666 24 26.6666L26.6666 24L24.6878 21.6658L26.1518 18.1306L29.3332 17.3029L29.3333 14.6666L26.1632 13.8605Z" stroke="var(--stroke-0, #158EF2)" stroke-width="2" stroke-linecap="round" stroke-linejoin="round"/>
</g>
</svg>
