<svg preserveAspectRatio="none" width="100%" height="100%" overflow="visible" style="display: block;" viewBox="0 0 96 96" fill="none" xmlns="http://www.w3.org/2000/svg">
<g id="Frame">
<path id="Vector" fill-rule="evenodd" clip-rule="evenodd" d="M48 5C24.2518 5 5 24.2518 5 48C5 71.7484 24.2518 91 48 91C71.7484 91 91 71.7484 91 48C91 24.2518 71.7484 5 48 5ZM30.1218 47.8788C28.9502 46.7072 27.0507 46.7072 25.8791 47.8788C24.7076 49.0504 24.7076 50.9496 25.8791 52.1212L37.8791 64.1212C39.0507 65.2928 40.9504 65.2928 42.1216 64.1212L70.1216 36.1213C71.2932 34.9498 71.2932 33.0502 70.1216 31.8787C68.95 30.7071 67.0508 30.7071 65.8792 31.8787L40.0004 57.7572L30.1218 47.8788Z" fill="var(--fill-0, #158EF2)"/>
</g>
</svg>
