<?xml version="1.0" encoding="UTF-8"?>
<svg id="Layer_1" data-name="Layer 1" xmlns="http://www.w3.org/2000/svg" viewBox="0 0 512 512">
  <defs>
    <style>
      .cls-1 {
        fill-rule: evenodd;
      }

      .cls-1, .cls-2 {
        fill: #fff;
      }
    </style>
  </defs>
  <path class="cls-2" d="M460.07,267.33h-22.58v-30.83h22.58v5.34h-16.98v7.01h13.8v5.38h-13.8v7.76h16.98v5.34ZM433.77,267.33h-8.07c-6.91-6.44-10.66-9.78-11.25-10.01v-3.84c.53.15,1.02.26,1.48.33.46.07.87.11,1.26.11.88,0,1.73-.12,2.56-.38.82-.25,1.54-.62,2.16-1.12.62-.5,1.12-1.12,1.5-1.85.38-.74.57-1.59.57-2.56,0-.88-.13-1.71-.4-2.47-.26-.76-.64-1.42-1.12-1.96-.48-.54-1.05-.97-1.7-1.28s-1.37-.46-2.16-.46h-6.97v25.49h-5.6v-30.83h12.57c3.06,0,5.69,1.1,7.89,3.31,2.09,2.35,3.13,5.09,3.13,8.2,0,3.85-1.68,6.91-5.03,9.17l-.93.53,10.1,9.61ZM387.4,267.72c-1.76,0-3.43-.33-4.98-.99-1.56-.66-2.92-1.57-4.08-2.71-1.16-1.15-2.08-2.49-2.76-4.04-.68-1.54-1.01-3.2-1.01-4.96v-18.52h5.6v18.52c0,1,.18,1.95.55,2.84.37.9.88,1.68,1.54,2.34.66.66,1.43,1.19,2.32,1.59.88.4,1.82.6,2.82.6s1.98-.2,2.84-.6c.87-.4,1.63-.93,2.29-1.59.66-.66,1.18-1.44,1.54-2.34.37-.9.55-1.85.55-2.84v-18.52h5.65v18.52c0,1.76-.34,3.42-1.01,4.96-.68,1.54-1.6,2.89-2.78,4.04-1.18,1.15-2.54,2.05-4.1,2.71-1.56.66-3.22.99-4.98.99ZM359.34,267.33h-5.6v-25.49h-11.42l3.13-5.34h26.02l-3.13,5.34h-9v25.49ZM338.55,267.64l-22.18-19.27v18.96h-5.6v-31.09l22.18,19.27v-19.01h5.6v31.14ZM305.77,267.33h-22.58v-30.83h22.58v5.34h-16.98v7.01h13.8v5.38h-13.8v7.76h16.98v5.34ZM262.58,268.03l-16.98-31.53h6.31l10.67,19.8,10.67-19.8h6.31l-16.98,31.53ZM211.8,267.33h-5.6v-30.83h21.92v5.34h-16.32v7.01h13.14v5.38h-13.14v13.1ZM202.57,267.33h-6.31l-2.82-5.16h-8.64l-2.91-5.38h8.69l-4.94-9.17-10.63,19.71h-6.31l16.94-31.49,16.94,31.49Z"/>
  <path class="cls-2" d="M310.89,296.43c.76-.03,1.46-.19,2.1-.47.64-.28,1.21-.66,1.69-1.14.48-.48.86-1.04,1.14-1.69.27-.65.41-1.36.41-2.11s-.14-1.44-.42-2.09c-.28-.65-.66-1.22-1.14-1.72-.48-.49-1.04-.88-1.69-1.16-.65-.28-1.35-.42-2.09-.42s-1.44.14-2.09.42c-.65.28-1.22.67-1.69,1.16-.48.49-.85,1.06-1.12,1.72-.27.65-.41,1.35-.41,2.09s.14,1.44.41,2.09c.27.65.65,1.22,1.12,1.72.48.49,1.04.88,1.69,1.16.65.28,1.35.43,2.09.44M310.89,299.18c-1.12,0-2.18-.22-3.18-.65-1-.43-1.87-1.02-2.61-1.75-.74-.73-1.33-1.6-1.76-2.59-.43-.99-.65-2.05-.65-3.17s.22-2.17.65-3.16c.43-.98,1.02-1.84,1.76-2.58s1.61-1.32,2.61-1.75c1-.43,2.06-.65,3.18-.65s2.2.22,3.19.65c.99.43,1.86,1.01,2.61,1.75.75.73,1.34,1.59,1.77,2.58.43.98.65,2.04.65,3.16s-.22,2.18-.65,3.17c-.43.99-1.02,1.86-1.77,2.59-.75.73-1.62,1.32-2.61,1.75-.99.43-2.06.65-3.19.65ZM287.03,298.98h-2.89v-15.88h2.89v15.88ZM260.51,296.23c.73-.03,1.4-.18,2.02-.45.62-.27,1.16-.64,1.62-1.09.46-.45.83-1,1.09-1.62.26-.63.4-1.31.4-2.03s-.13-1.38-.4-2.01c-.27-.63-.63-1.18-1.09-1.65-.46-.47-1.01-.84-1.64-1.11-.63-.27-1.3-.41-2.01-.41h-3.27v10.38h3.27ZM254.35,298.98v-15.88h6.16c1.11,0,2.14.21,3.11.62.97.42,1.82.98,2.54,1.7.73.72,1.3,1.56,1.73,2.52.42.96.64,1.99.64,3.08s-.21,2.14-.64,3.1c-.42.96-1,1.8-1.73,2.52-.73.72-1.58,1.29-2.54,1.7-.97.42-2.01.62-3.11.62h-6.16ZM231.64,299.18c-.91,0-1.76-.17-2.57-.51-.8-.34-1.5-.81-2.1-1.4-.6-.59-1.07-1.28-1.42-2.08-.35-.8-.52-1.65-.52-2.56v-9.54h2.89v9.54c0,.51.09,1,.28,1.47.19.46.45.86.8,1.2.34.34.74.61,1.19.82.45.2.94.31,1.45.31s1.02-.1,1.47-.31c.45-.2.84-.48,1.18-.82.34-.34.61-.74.8-1.2.19-.46.28-.95.28-1.47v-9.54h2.91v9.54c0,.91-.17,1.76-.52,2.56-.35.8-.83,1.49-1.43,2.08-.61.59-1.31,1.06-2.11,1.4-.8.34-1.66.51-2.57.51ZM204.08,298.98h-2.89v-13.13h-5.89l1.61-2.75h13.41l-1.61,2.75h-4.64v13.13ZM174.83,299.16c-.82,0-1.59-.09-2.31-.27-.72-.18-1.36-.47-1.91-.87-.55-.4-1-.92-1.34-1.57-.34-.64-.53-1.42-.58-2.33h2.93c.08.89.41,1.53,1.01,1.9s1.32.56,2.17.56c.91,0,1.64-.2,2.2-.6.56-.4.84-.92.84-1.56,0-.33-.1-.62-.28-.85-.19-.23-.42-.43-.7-.59-.28-.16-.58-.29-.9-.39-.32-.1-.61-.18-.89-.24l-1.75-.45c-2.82-.73-4.23-2.15-4.23-4.27,0-.71.15-1.36.44-1.93.3-.58.7-1.07,1.23-1.48.52-.41,1.14-.73,1.85-.95.71-.23,1.48-.34,2.3-.34s1.57.11,2.25.34c.68.23,1.27.55,1.77.95.5.41.89.9,1.18,1.48.29.58.45,1.22.5,1.93h-2.86c-.09-.7-.39-1.23-.9-1.59-.51-.36-1.17-.55-1.99-.55-.88,0-1.56.19-2.03.58-.48.39-.72.84-.72,1.37,0,.8.55,1.4,1.64,1.8.29.09,1.09.3,2.41.61.59.14,1.17.33,1.73.57s1.06.55,1.49.91c.43.36.78.8,1.05,1.32.27.51.4,1.11.4,1.79s-.14,1.34-.41,1.92c-.27.58-.67,1.08-1.18,1.5-.52.42-1.14.74-1.89.97-.74.23-1.58.34-2.52.34Z"/>
  <polygon class="cls-1" points="114.26 277.59 101.79 256 126.72 256 101.79 212.82 76.86 256 51.93 299.18 76.86 299.18 89.32 277.59 114.26 277.59 101.79 299.18 151.65 299.18 126.72 256 114.26 277.59"/>
</svg>