<?xml version="1.0" encoding="UTF-8"?>
<svg id="Layer_1" data-name="Layer 1" xmlns="http://www.w3.org/2000/svg" viewBox="55 137 401 239">
  <defs>
    <style>
      .cls-1 {
        fill-rule: evenodd;
      }

      .cls-1, .cls-2 {
        fill: #fff;
      }
    </style>
  </defs>
  <path class="cls-2" d="M454.53,329.98h-30.77v-42.01h30.77v7.27h-23.14v9.56h18.81v7.33h-18.81v10.58h23.14v7.27ZM418.69,329.98h-11c-9.42-8.77-14.52-13.32-15.33-13.64v-5.23c.72.2,1.39.35,2.01.45.62.1,1.19.15,1.71.15,1.2,0,2.36-.17,3.49-.51,1.12-.34,2.1-.85,2.95-1.53.84-.68,1.52-1.52,2.04-2.52.52-1,.78-2.16.78-3.49,0-1.2-.18-2.32-.54-3.37-.36-1.04-.87-1.93-1.53-2.67-.66-.74-1.43-1.32-2.31-1.74-.88-.42-1.86-.63-2.94-.63h-9.5v34.74h-7.63v-42.01h17.13c4.17,0,7.75,1.5,10.76,4.51,2.84,3.21,4.27,6.93,4.27,11.18,0,5.25-2.28,9.42-6.85,12.5l-1.26.72,13.76,13.1ZM355.51,330.52c-2.4,0-4.67-.45-6.79-1.35-2.12-.9-3.98-2.13-5.56-3.7-1.58-1.56-2.84-3.4-3.76-5.5-.92-2.1-1.38-4.36-1.38-6.76v-25.24h7.63v25.24c0,1.36.25,2.65.75,3.88.5,1.22,1.2,2.28,2.1,3.19.9.9,1.95,1.62,3.16,2.16,1.2.54,2.48.81,3.85.81s2.69-.27,3.88-.81c1.18-.54,2.22-1.26,3.13-2.16.9-.9,1.6-1.96,2.1-3.19.5-1.22.75-2.51.75-3.88v-25.24h7.69v25.24c0,2.4-.46,4.66-1.38,6.76-.92,2.1-2.18,3.94-3.79,5.5-1.6,1.56-3.47,2.8-5.59,3.7-2.12.9-4.39,1.35-6.79,1.35ZM317.26,329.98h-7.63v-34.74h-15.57l4.27-7.27h35.46l-4.27,7.27h-12.26v34.74ZM288.94,330.4l-30.23-26.26v25.84h-7.63v-42.37l30.23,26.26v-25.9h7.63v42.43ZM244.26,329.98h-30.77v-42.01h30.77v7.27h-23.14v9.56h18.81v7.33h-18.81v10.58h23.14v7.27ZM185.4,330.94l-23.14-42.97h8.59l14.54,26.99,14.54-26.99h8.59l-23.14,42.97ZM116.2,329.98h-7.63v-42.01h29.87v7.27h-22.24v9.56h17.91v7.33h-17.91v17.85ZM103.62,329.98h-8.59l-3.85-7.03h-11.78l-3.97-7.33h11.84l-6.73-12.5-14.48,26.87h-8.59l23.08-42.91,23.08,42.91Z"/>
  <path class="cls-2" d="M347.28,369.64c1.03-.04,1.99-.25,2.86-.63.88-.38,1.65-.9,2.31-1.55s1.18-1.42,1.55-2.31c.37-.89.56-1.85.56-2.88s-.19-1.96-.57-2.85c-.38-.89-.9-1.67-1.55-2.34-.65-.67-1.42-1.2-2.31-1.58-.89-.38-1.84-.57-2.85-.57s-1.96.19-2.85.57c-.89.38-1.66.91-2.31,1.58-.65.67-1.16,1.45-1.53,2.34-.37.89-.56,1.84-.56,2.85s.19,1.96.56,2.85c.37.89.88,1.67,1.53,2.34.65.67,1.42,1.2,2.31,1.58.89.38,1.84.58,2.85.6M347.28,373.39c-1.53,0-2.97-.29-4.34-.88-1.36-.59-2.55-1.38-3.56-2.38-1.01-1-1.81-2.18-2.4-3.53-.59-1.35-.88-2.79-.88-4.32s.29-2.96.88-4.3c.59-1.34,1.39-2.51,2.4-3.51,1.01-1,2.2-1.8,3.56-2.38,1.36-.59,2.81-.88,4.34-.88s3,.29,4.35.88,2.54,1.38,3.56,2.38,1.83,2.17,2.42,3.51c.59,1.34.88,2.78.88,4.3s-.29,2.97-.88,4.32c-.59,1.35-1.39,2.53-2.42,3.53-1.02,1-2.21,1.8-3.56,2.38-1.35.59-2.8.88-4.35.88ZM314.76,373.11h-3.93v-21.64h3.93v21.64ZM278.62,369.36c.99-.04,1.91-.25,2.76-.62.85-.37,1.58-.87,2.21-1.49.63-.62,1.13-1.36,1.49-2.21.36-.86.54-1.78.54-2.77s-.18-1.88-.54-2.74c-.36-.86-.86-1.6-1.49-2.24-.63-.64-1.37-1.15-2.23-1.52-.86-.37-1.77-.56-2.74-.56h-4.46v14.15h4.46ZM270.23,373.11v-21.64h8.39c1.51,0,2.92.28,4.24.85,1.32.57,2.48,1.34,3.47,2.32.99.98,1.78,2.13,2.35,3.44.58,1.31.87,2.71.87,4.2s-.29,2.92-.87,4.23c-.58,1.31-1.36,2.46-2.35,3.44-.99.98-2.15,1.75-3.47,2.32-1.32.57-2.74.85-4.24.85h-8.39ZM239.29,373.39c-1.24,0-2.4-.23-3.5-.7-1.09-.46-2.05-1.1-2.86-1.9-.82-.81-1.46-1.75-1.94-2.83-.47-1.08-.71-2.24-.71-3.48v-13.01h3.93v13.01c0,.7.13,1.37.39,2,.26.63.62,1.18,1.08,1.64.46.46,1.01.84,1.63,1.11.62.28,1.28.42,1.98.42s1.39-.14,2-.42c.61-.28,1.15-.65,1.61-1.11.46-.46.83-1.01,1.08-1.64.26-.63.39-1.3.39-2v-13.01h3.96v13.01c0,1.24-.24,2.4-.71,3.48-.48,1.08-1.13,2.03-1.95,2.83-.83.81-1.79,1.44-2.88,1.9-1.09.46-2.26.7-3.5.7ZM201.73,373.11h-3.93v-17.9h-8.02l2.2-3.75h18.27l-2.2,3.75h-6.32v17.9ZM161.87,373.36c-1.11,0-2.16-.12-3.14-.37-.98-.25-1.85-.65-2.6-1.19-.75-.55-1.36-1.26-1.83-2.14-.46-.88-.73-1.94-.79-3.17h3.99c.1,1.22.56,2.08,1.38,2.59.82.51,1.8.76,2.96.76,1.24,0,2.24-.27,3-.82.76-.55,1.15-1.25,1.15-2.12,0-.45-.13-.84-.39-1.16-.26-.32-.58-.59-.96-.81-.38-.22-.79-.39-1.22-.53-.43-.13-.84-.24-1.21-.33l-2.38-.62c-3.84-.99-5.76-2.93-5.76-5.82,0-.97.2-1.85.6-2.63.4-.78.96-1.46,1.67-2.01.71-.56,1.55-.99,2.52-1.3.97-.31,2.01-.46,3.13-.46s2.14.15,3.07.46c.93.31,1.73.74,2.42,1.3.68.56,1.22,1.23,1.61,2.01.39.78.62,1.66.68,2.63h-3.9c-.12-.95-.53-1.67-1.22-2.17-.69-.5-1.59-.74-2.71-.74-1.2,0-2.12.26-2.77.79-.65.53-.98,1.15-.98,1.87,0,1.09.74,1.91,2.23,2.45.39.12,1.49.4,3.28.84.8.19,1.59.44,2.35.77.76.33,1.44.74,2.03,1.24.59.5,1.06,1.09,1.42,1.8.36.7.54,1.52.54,2.45s-.19,1.82-.56,2.62c-.37.79-.91,1.48-1.61,2.04-.7.57-1.56,1.01-2.57,1.32-1.01.31-2.16.46-3.44.46Z"/>
  <polygon class="cls-1" points="272.99 226.88 256 197.46 289.98 197.46 256 138.61 222.03 197.46 188.05 256.3 222.03 256.3 239.01 226.88 272.99 226.88 256 256.3 323.95 256.3 289.98 197.46 272.99 226.88"/>
</svg>