<svg preserveAspectRatio="none" width="100%" height="100%" overflow="visible" style="display: block;" viewBox="0 0 32 32" fill="none" xmlns="http://www.w3.org/2000/svg">
<g id="Frame">
<path id="Vector" d="M3.59375 9.58056L15.5937 14.9139L16.406 13.0863L4.40602 7.75293L3.59375 9.58056ZM16.9999 28.6667V14.0001H14.9999V28.6667H16.9999ZM16.406 14.9139L28.406 9.58056L27.5937 7.75293L15.5937 13.0863L16.406 14.9139Z" fill="var(--fill-0, #158EF2)"/>
<path id="Vector_2" d="M4 22.8135V9.18663C4 8.87048 4.18619 8.58399 4.47509 8.45559L15.6751 3.4778C15.882 3.38587 16.118 3.38587 16.3249 3.4778L27.5249 8.45559C27.8139 8.58399 28 8.87048 28 9.18663V22.8135C28 23.1297 27.8139 23.4162 27.5249 23.5446L16.3249 28.5223C16.118 28.6142 15.882 28.6142 15.6751 28.5223L4.47509 23.5446C4.18619 23.4162 4 23.1297 4 22.8135Z" stroke="var(--stroke-0, #158EF2)" stroke-width="2" stroke-linecap="round" stroke-linejoin="round"/>
<path id="Vector_3" d="M10 6L21.5249 11.1222C21.8139 11.2506 22 11.5371 22 11.8532V16.6667" stroke="var(--stroke-0, #158EF2)" stroke-width="2" stroke-linecap="round" stroke-linejoin="round"/>
</g>
</svg>
