<svg preserveAspectRatio="none" width="100%" height="100%" overflow="visible" style="display: block;" viewBox="0 0 32 32" fill="none" xmlns="http://www.w3.org/2000/svg">
<g id="Frame">
<path id="Vector" d="M8 8C8 6.93913 8.42143 5.92172 9.17157 5.17157C9.92172 4.42143 10.9391 4 12 4H16V12H12C10.9391 12 9.92172 11.5786 9.17157 10.8284C8.42143 10.0783 8 9.06087 8 8Z" stroke="var(--stroke-0, #158EF2)" stroke-width="2" stroke-linecap="round" stroke-linejoin="round"/>
<path id="Vector_2" d="M16 4H20C20.5253 4 21.0455 4.10347 21.5308 4.30448C22.016 4.50551 22.4569 4.80013 22.8284 5.17157C23.1999 5.54301 23.4945 5.98396 23.6955 6.46927C23.8965 6.95457 24 7.47471 24 8C24 8.52529 23.8965 9.04543 23.6955 9.53073C23.4945 10.016 23.1999 10.457 22.8284 10.8284C22.4569 11.1999 22.016 11.4945 21.5308 11.6955C21.0455 11.8965 20.5253 12 20 12H16V4Z" stroke="var(--stroke-0, #158EF2)" stroke-width="2" stroke-linecap="round" stroke-linejoin="round"/>
<path id="Vector_3" d="M16 16C16 15.4747 16.1035 14.9545 16.3045 14.4692C16.5055 13.984 16.8001 13.5431 17.1716 13.1716C17.5431 12.8001 17.984 12.5055 18.4692 12.3045C18.9545 12.1035 19.4747 12 20 12C20.5253 12 21.0455 12.1035 21.5308 12.3045C22.016 12.5055 22.4569 12.8001 22.8284 13.1716C23.1999 13.5431 23.4945 13.984 23.6955 14.4692C23.8965 14.9545 24 15.4747 24 16C24 16.5253 23.8965 17.0455 23.6955 17.5308C23.4945 18.016 23.1999 18.4569 22.8284 18.8284C22.4569 19.1999 22.016 19.4945 21.5308 19.6955C21.0455 19.8965 20.5253 20 20 20C19.4747 20 18.9545 19.8965 18.4692 19.6955C17.984 19.4945 17.5431 19.1999 17.1716 18.8284C16.8001 18.4569 16.5055 18.016 16.3045 17.5308C16.1035 17.0455 16 16.5253 16 16Z" stroke="var(--stroke-0, #158EF2)" stroke-width="2" stroke-linecap="round" stroke-linejoin="round"/>
<path id="Vector_4" d="M8 24C8 22.9392 8.42143 21.9217 9.17157 21.1716C9.92172 20.4215 10.9391 20 12 20H16V24C16 25.0608 15.5785 26.0783 14.8284 26.8284C14.0783 27.5785 13.0609 28 12 28C10.9391 28 9.92172 27.5785 9.17157 26.8284C8.42143 26.0783 8 25.0608 8 24Z" stroke="var(--stroke-0, #158EF2)" stroke-width="2" stroke-linecap="round" stroke-linejoin="round"/>
<path id="Vector_5" d="M8 16C8 14.9392 8.42143 13.9217 9.17157 13.1716C9.92172 12.4214 10.9391 12 12 12H16V20H12C10.9391 20 9.92172 19.5785 9.17157 18.8284C8.42143 18.0783 8 17.0608 8 16Z" stroke="var(--stroke-0, #158EF2)" stroke-width="2" stroke-linecap="round" stroke-linejoin="round"/>
</g>
</svg>
